HIERARCHY
ROOT Hips
{
  OFFSET 48.983 95.4597 -1.07895
  CHANNELS 6 Xposition Yposition Zposition Zrotation Xrotation Yrotation
  JOINT spine
  {
    OFFSET 0 7.96568 0.458067
    CHANNELS 3 Zrotation Xrotation Yrotation
    JOINT spine1
    {
      OFFSET 0 10.2431 0
      CHANNELS 3 Zrotation Xrotation Yrotation
      JOINT spine2
      {
        OFFSET 0 9.81475 0
        CHANNELS 3 Zrotation Xrotation Yrotation
        JOINT Neck
        {
          OFFSET 0 25.1986 1.20138
          CHANNELS 3 Zrotation Xrotation Yrotation
          JOINT Head
          {
            OFFSET 0 7.61315 0
            CHANNELS 3 Zrotation Xrotation Yrotation
            End Site
            {
              OFFSET 0 18.4281 -6.07733
            }
          }
        }
        JOINT RightShoulder
        {
          OFFSET -4.1327 10.5992 -0.575451
          CHANNELS 3 Zrotation Xrotation Yrotation
          JOINT RightArm
          {
            OFFSET 0 13.9018 0
            CHANNELS 3 Zrotation Xrotation Yrotation
            JOINT RightArmRoll
            {
              OFFSET 0 7.01789 0
              CHANNELS 3 Zrotation Xrotation Yrotation
              JOINT RightForeArm
              {
                OFFSET 0 20.4406 0
                CHANNELS 3 Zrotation Xrotation Yrotation
                JOINT RightForeArmRoll
                {
                  OFFSET 0 7.87515 0
                  CHANNELS 3 Zrotation Xrotation Yrotation
                  JOINT RightHand
                  {
                    OFFSET 0 15.8037 0
                    CHANNELS 3 Zrotation Xrotation Yrotation
                    End Site
                    {
                      OFFSET 0 0 0
                    }
                  }
                }
              }
            }
          }
        }
        JOINT LeftShoulder
        {
          OFFSET 4.1327 10.5992 -0.575451
          CHANNELS 3 Zrotation Xrotation Yrotation
          JOINT LeftArm
          {
            OFFSET 0 13.9018 0
            CHANNELS 3 Zrotation Xrotation Yrotation
            JOINT LeftArmRoll
            {
              OFFSET 0 7.01788 0
              CHANNELS 3 Zrotation Xrotation Yrotation
              JOINT LeftForeArm
              {
                OFFSET 0 20.4406 0
                CHANNELS 3 Zrotation Xrotation Yrotation
                JOINT LeftForeArmRoll
                {
                  OFFSET 0 7.87515 0
                  CHANNELS 3 Zrotation Xrotation Yrotation
                  JOINT LeftHand
                  {
                    OFFSET 0 15.8037 0
                    CHANNELS 3 Zrotation Xrotation Yrotation
                    End Site
                    {
                      OFFSET 0 0 0
                    }
                  }
                }
              }
            }
          }
        }
      }
    }
  }
  JOINT RightUpLeg
  {
    OFFSET -7.06048 -1.2947 -1.0861
    CHANNELS 3 Zrotation Xrotation Yrotation
    JOINT RightUpLegRoll
    {
      OFFSET 0 18.5308 0
      CHANNELS 3 Zrotation Xrotation Yrotation
      JOINT RightLeg
      {
        OFFSET 0 -22.9476 0
        CHANNELS 3 Zrotation Xrotation Yrotation
        JOINT RightLegRoll
        {
          OFFSET 0 23.0226 0
          CHANNELS 3 Zrotation Xrotation Yrotation
          JOINT RightFoot
          {
            OFFSET 0 19.1625 0
            CHANNELS 3 Zrotation Xrotation Yrotation
            JOINT RightToeBase
            {
              OFFSET 0 16.0188 0
              CHANNELS 3 Zrotation Xrotation Yrotation
              End Site
              {
                OFFSET 0.00678979 7.75782 -0.894206
              }
            }
          }
        }
      }
    }
  }
  JOINT LeftUpLeg
  {
    OFFSET 7.06048 -1.2947 -1.0861
    CHANNELS 3 Zrotation Xrotation Yrotation
    JOINT LeftUpLegRoll
    {
      OFFSET 0 18.5309 0
      CHANNELS 3 Zrotation Xrotation Yrotation
      JOINT LeftLeg
      {
        OFFSET 0 22.9475 0
        CHANNELS 3 Zrotation Xrotation Yrotation
        JOINT LeftLegRoll
        {
          OFFSET 0 23.2355 0
          CHANNELS 3 Zrotation Xrotation Yrotation
          JOINT LeftFoot
          {
            OFFSET 0 18.9496 0
            CHANNELS 3 Zrotation Xrotation Yrotation
            JOINT LeftToeBase
            {
              OFFSET 0 16.0188 0
              CHANNELS 3 Zrotation Xrotation Yrotation
              End Site
              {
                OFFSET -0.0304289 7.75782 -0.894206
              }
            }
          }
        }
      }
    }
  }
}
MOTION
Frames: 11
Frame Time: 0.00208333
49.3995 95.6212 -2.90893 -1.2667 -2.93652 -5.02527 0.53951 -1.39908 0.00856139 1.06349 1.20484 -0.0397499 1.0647 2.84975 -0.0575856 -1.01359 29.3413 16.0618 -10.327 -12.5451 13.3352 65.5859 5.7542 2.23331 103.727 4.31944 -23.6781 1.16804e-006 2.90213e-007 -3.20942e-006 31.0906 57.2046 -19.2075 -6.87981e-006 2.26817e-006 -3.01251 8.02893 -4.95142 0.697582 -74.4877 0.0817776 1.79058 -96.1359 7.82841 26.2407 -6.36111e-015 1.59028e-015 6.36111e-015 -38.9728 57.6664 24.7762 1.38835e-006 3.53769e-006 3 -8.02921 -4.95147 -0.697586 176.227 -0.619663 -2.38524 -180 7.01533e-015 178.862 177.645 5.75754 179.549 3.9803e-006 1.24934e-006 0.0371749 -18.4013 68.296 19.7753 8.13587 25.2327 -3.48747 -171.986 -2.87762 -1.17946 4.54188e-006 -4.6773e-006 -1.23079 -2.2396 -7.60802 0.0554031 2.68343e-006 -3.0579e-006 -0.191998 20.8894 70.2196 -21.6156 -8.13381 25.3242 3.36391 
49.3894 95.6463 -2.90884 -1.27225 -2.93802 -5.03371 0.540523 -1.39963 0.00856358 1.06662 1.20439 -0.0403444 1.06784 2.84929 -0.0582328 -1.03137 29.3429 16.0771 -10.3249 -12.5501 13.3429 65.6021 5.75956 2.23324 103.708 4.32417 -23.6986 1.16804e-006 2.90213e-007 -3.20942e-006 31.1018 57.2155 -19.2165 -6.87981e-006 2.26817e-006 -3.01251 8.02893 -4.95142 0.697582 -74.4888 0.0820846 1.79055 -96.1263 7.83112 26.2515 7.15625e-015 -6.36111e-015 6.36111e-015 -38.9836 57.677 24.7887 1.38835e-006 3.53769e-006 3 -8.02921 -4.95147 -0.697586 176.238 -0.62416 -2.39089 -180 7.01533e-015 178.862 177.644 5.75738 179.549 3.9803e-006 1.24934e-006 0.0373737 -18.4048 68.2991 19.7773 8.13587 25.2327 -3.48747 -171.975 -2.88217 -1.18745 4.54188e-006 -4.6773e-006 -1.23079 -2.24106 -7.61712 0.0549966 2.68343e-006 -3.0579e-006 -0.192516 20.8982 70.2288 -21.625 -8.13384 25.3247 3.36316 
49.3742 95.6371 -2.90322 -1.27778 -2.93955 -5.04206 0.541454 -1.40014 0.00855156 1.06962 1.20406 -0.0409917 1.07085 2.84897 -0.0589307 -1.04837 29.3451 16.0925 -10.3233 -12.5559 13.3508 65.6202 5.76531 2.23305 103.687 4.32891 -23.719 1.16804e-006 2.90213e-007 -3.20942e-006 31.1134 57.2268 -19.2258 -6.87981e-006 2.26817e-006 -3.01251 8.02893 -4.95142 0.697582 -74.49 0.0827786 1.79036 -96.116 7.83354 26.2621 2.38542e-015 7.95139e-016 -3.18055e-015 -38.9946 57.6877 24.8012 1.38835e-006 3.53769e-006 3 -8.02921 -4.95147 -0.697586 176.249 -0.628217 -2.3965 -180 7.01533e-015 178.862 177.644 5.75796 179.549 3.9803e-006 1.24934e-006 0.0375659 -18.4083 68.3025 19.7796 8.13587 25.2327 -3.48747 -171.964 -2.8865 -1.19506 4.54188e-006 -4.6773e-006 -1.23079 -2.24219 -7.62652 0.0545964 2.68343e-006 -3.0579e-006 -0.193057 20.9073 70.2385 -21.6348 -8.13387 25.3252 3.3625 
49.3679 95.6199 -2.8991 -1.28329 -2.94112 -5.05035 0.542325 -1.40061 0.00852957 1.07253 1.20383 -0.0416759 1.07377 2.84874 -0.059664 -1.06482 29.3477 16.108 -10.322 -12.5622 13.3589 65.6396 5.77134 2.23276 103.664 4.33366 -23.7396 1.16804e-006 2.90213e-007 -3.20942e-006 31.1253 57.2385 -19.2354 -6.87981e-006 2.26817e-006 -3.01251 8.02893 -4.95142 0.697582 -74.4912 0.0837437 1.79005 -96.1052 7.83575 26.2727 -2.94201e-014 2.06736e-014 -1.27222e-014 -39.0057 57.6983 24.8137 1.38835e-006 3.53769e-006 3 -8.02921 -4.95147 -0.697586 176.26 -0.631965 -2.40209 -180 7.01533e-015 178.862 177.644 5.75907 179.549 3.9803e-006 1.24934e-006 0.0377533 -18.4117 68.306 19.7819 8.13587 25.2327 -3.48747 -171.954 -2.89066 -1.20239 4.54188e-006 -4.6773e-006 -1.23079 -2.24309 -7.63611 0.0542007 2.68343e-006 -3.0579e-006 -0.193614 20.9167 70.2483 -21.6449 -8.1339 25.3255 3.3619 
49.3614 95.6242 -2.89256 -1.28879 -2.9427 -5.05861 0.543164 -1.40107 0.0085019 1.07539 1.20365 -0.0423812 1.07664 2.84856 -0.0604175 -1.08096 29.3505 16.1236 -10.321 -12.5689 13.3671 65.6597 5.77752 2.23243 103.641 4.33841 -23.7602 1.16804e-006 2.90213e-007 -3.20942e-006 31.1373 57.2503 -19.2452 -6.87981e-006 2.26817e-006 -3.01251 8.02893 -4.95142 0.697582 -74.4925 0.0848635 1.78968 -96.0941 7.83784 26.2832 6.36111e-015 -2.38542e-015 3.18055e-015 -39.0169 57.7089 24.8263 1.38835e-006 3.53769e-006 3 -8.02921 -4.95147 -0.697586 176.271 -0.635537 -2.40767 -180 7.01533e-015 178.862 177.644 5.7605 179.549 3.9803e-006 1.24934e-006 0.0379381 -18.4151 68.3097 19.7844 8.13587 25.2327 -3.48747 -171.943 -2.89474 -1.20957 4.54188e-006 -4.6773e-006 -1.23079 -2.24386 -7.64583 0.0538076 2.68343e-006 -3.0579e-006 -0.194181 20.9262 70.2583 -21.6551 -8.13392 25.3259 3.36134 
49.3487 95.6272 -2.88086 -1.29428 -2.94428 -5.06686 0.543994 -1.40153 0.0084728 1.07824 1.20349 -0.0430918 1.0795 2.84839 -0.0611762 -1.09702 29.3534 16.1392 -10.32 -12.5757 13.3753 65.68 5.78374 2.23208 103.618 4.34316 -23.7808 1.16804e-006 2.90213e-007 -3.20942e-006 31.1494 57.2623 -19.2549 -6.87981e-006 2.26817e-006 -3.01251 8.02893 -4.95142 0.697582 -74.4938 0.0860221 1.78928 -96.0829 7.8399 26.2937 -4.77083e-015 3.97569e-015 -3.18055e-015 -39.0281 57.7195 24.8389 1.38835e-006 3.53769e-006 3 -8.02921 -4.95147 -0.697586 176.281 -0.639065 -2.41324 -180 7.01533e-015 178.862 177.643 5.762 179.549 3.9803e-006 1.24934e-006 0.0381223 -18.4184 68.3134 19.7868 8.13587 25.2327 -3.48747 -171.933 -2.89879 -1.21672 4.54188e-006 -4.6773e-006 -1.23079 -2.24459 -7.65557 0.053415 2.68343e-006 -3.0579e-006 -0.194749 20.9358 70.2683 -21.6654 -8.13395 25.3263 3.36078 
49.3358 95.6247 -2.87836 -1.29978 -2.94586 -5.07513 0.544841 -1.402 0.00844655 1.08111 1.2033 -0.0437918 1.08238 2.8482 -0.0619246 -1.11324 29.3562 16.1547 -10.319 -12.5823 13.3835 65.7 5.78989 2.23176 103.595 4.34791 -23.8014 1.16804e-006 2.90213e-007 -3.20942e-006 31.1614 57.2741 -19.2647 -6.87981e-006 2.26817e-006 -3.01251 8.02893 -4.95142 0.697582 -74.495 0.0871033 1.78893 -96.0719 7.84202 26.3043 -8.74653e-015 5.56597e-015 6.36111e-015 -39.0393 57.7301 24.8514 1.38835e-006 3.53769e-006 3 -8.02921 -4.95147 -0.697586 176.292 -0.64268 -2.41883 -180 7.01533e-015 178.862 177.643 5.76333 179.549 3.9803e-006 1.24934e-006 0.0383078 -18.4218 68.317 19.7892 8.13587 25.2327 -3.48747 -171.922 -2.90289 -1.22394 4.54188e-006 -4.6773e-006 -1.23079 -2.24539 -7.66526 0.0530212 2.68343e-006 -3.0579e-006 -0.195313 20.9453 70.2782 -21.6757 -8.13397 25.3267 3.36021 
49.328 95.6118 -2.87629 -1.3053 -2.94742 -5.08344 0.54573 -1.40248 0.00842741 1.08405 1.20304 -0.0444655 1.08533 2.84794 -0.0626478 -1.12986 29.3586 16.1702 -10.3176 -12.5885 13.3916 65.719 5.79583 2.2315 103.573 4.35265 -23.8219 1.16804e-006 2.90213e-007 -3.20942e-006 31.1732 57.2857 -19.2742 -6.87981e-006 2.26817e-006 -3.01251 8.02893 -4.95142 0.697582 -74.4963 0.0879909 1.78865 -96.0612 7.84429 26.3149 1.03368e-014 -7.15625e-015 6.36111e-015 -39.0505 57.7407 24.864 1.38835e-006 3.53769e-006 3 -8.02921 -4.95147 -0.697586 176.303 -0.646517 -2.42442 -180 7.01533e-015 178.862 177.643 5.76429 179.549 3.9803e-006 1.24934e-006 0.0384966 -18.4252 68.3205 19.7916 8.13587 25.2327 -3.48747 -171.911 -2.9071 -1.23135 4.54188e-006 -4.6773e-006 -1.23079 -2.24636 -7.67479 0.0526242 2.68343e-006 -3.0579e-006 -0.195866 20.9547 70.288 -21.6857 -8.134 25.3271 3.3596 
49.3218 95.6136 -2.86868 -1.31084 -2.94894 -5.09182 0.546685 -1.403 0.00841965 1.08708 1.20268 -0.0450969 1.08838 2.84758 -0.0633304 -1.14711 29.3606 16.1856 -10.3158 -12.594 13.3994 65.7365 5.80147 2.23134 103.552 4.35738 -23.8424 1.16804e-006 2.90213e-007 -3.20942e-006 31.1847 57.2969 -19.2835 -6.87981e-006 2.26817e-006 -3.01251 8.02893 -4.95142 0.697582 -74.4975 0.0885689 1.7885 -96.0511 7.84679 26.3256 -4.77083e-015 7.15625e-015 -3.18055e-015 -39.0614 57.7514 24.8765 1.38835e-006 3.53769e-006 3 -8.02921 -4.95147 -0.697586 176.314 -0.650705 -2.43005 -180 7.01533e-015 178.863 177.643 5.76465 179.549 3.9803e-006 1.24934e-006 0.0386907 -18.4287 68.3237 19.7937 8.13587 25.2327 -3.48747 -171.9 -2.91149 -1.23907 4.54188e-006 -4.6773e-006 -1.23079 -2.24759 -7.6841 0.052222 2.68343e-006 -3.0579e-006 -0.1964 20.9637 70.2975 -21.6955 -8.13403 25.3275 3.35891 
49.3033 95.6352 -2.85309 -1.31641 -2.95043 -5.10029 0.547731 -1.40357 0.00842754 1.09026 1.20217 -0.0456703 1.09156 2.84707 -0.0639573 -1.16522 29.3619 16.2009 -10.3135 -12.5987 13.4071 65.752 5.80667 2.23133 103.534 4.36209 -23.8628 1.16804e-006 2.90213e-007 -3.20942e-006 31.1958 57.3075 -19.2923 -6.87981e-006 2.26817e-006 -3.01251 8.02893 -4.95142 0.697582 -74.4986 0.088721 1.78854 -96.0418 7.84961 26.3364 6.36111e-015 -4.77083e-015 6.36111e-015 -39.0723 57.762 24.889 1.38835e-006 3.53769e-006 3 -8.02921 -4.95147 -0.697586 176.325 -0.655378 -2.43571 -180 7.01533e-015 178.863 177.642 5.76418 179.55 3.9803e-006 1.24934e-006 0.0388922 -18.4323 68.3267 19.7957 8.13587 25.2327 -3.48747 -171.889 -2.91614 -1.24722 4.54188e-006 -4.6773e-006 -1.23079 -2.24918 -7.69308 0.0518128 2.68343e-006 -3.0579e-006 -0.196909 20.9724 70.3066 -21.7048 -8.13407 25.3281 3.35812 
49.2893 95.6285 -2.85097 -1.32201 -2.95185 -5.10888 0.548894 -1.40419 0.00845533 1.09361 1.20147 -0.0461699 1.09492 2.84637 -0.0645133 -1.18443 29.3624 16.216 -10.3104 -12.6021 13.4144 65.7648 5.81132 2.23149 103.518 4.36678 -23.883 1.16804e-006 2.90213e-007 -3.20942e-006 31.2063 57.3174 -19.3006 -6.87981e-006 2.26817e-006 -3.01251 8.02893 -4.95142 0.697582 -74.4996 0.0883311 1.78881 -96.0335 7.85284 26.3474 -7.95139e-016 1.59028e-015 -0 -39.0829 57.7727 24.9015 1.38835e-006 3.53769e-006 3 -8.02921 -4.95147 -0.697586 176.337 -0.660667 -2.44141 -180 7.01533e-015 178.863 177.642 5.76266 179.55 3.9803e-006 1.24934e-006 0.039103 -18.4361 68.3294 19.7975 8.13587 25.2327 -3.48747 -171.878 -2.9211 -1.25591 4.54188e-006 -4.6773e-006 -1.23079 -2.25123 -7.70166 0.0513946 2.68343e-006 -3.0579e-006 -0.197386 20.9805 70.3153 -21.7135 -8.13411 25.3287 3.35721 
